<svg width="629" height="1024" viewBox="0 0 629 1024" fill="none" xmlns="http://www.w3.org/2000/svg">
    <g filter="url(#filter0_di_120_2)">
        <ellipse cx="-56.5" cy="529.5" rx="455.5" ry="595.5" fill="#4B77A4"/>
        <path d="M-56.5 1131C71.5443 1131 187.05 1063.13 270.353 954.227C353.651 845.327 405 695.143 405 529.5C405 363.857 353.651 213.673 270.353 104.773C187.05 -4.13318 71.5443 -72 -56.5 -72C-184.544 -72 -300.05 -4.13318 -383.353 104.773C-466.651 213.673 -518 363.857 -518 529.5C-518 695.143 -466.651 845.327 -383.353 954.227C-300.05 1063.13 -184.544 1131 -56.5 1131Z"
              stroke="white" stroke-width="12"/>
        <path d="M-56.5 1131C71.5443 1131 187.05 1063.13 270.353 954.227C353.651 845.327 405 695.143 405 529.5C405 363.857 353.651 213.673 270.353 104.773C187.05 -4.13318 71.5443 -72 -56.5 -72C-184.544 -72 -300.05 -4.13318 -383.353 104.773C-466.651 213.673 -518 363.857 -518 529.5C-518 695.143 -466.651 845.327 -383.353 954.227C-300.05 1063.13 -184.544 1131 -56.5 1131Z"
              stroke="#0054BF" stroke-opacity="0.2" stroke-width="12"/>
    </g>
    <g filter="url(#filter1_f_120_2)">
        <ellipse cx="-3" cy="501.5" rx="61.5" ry="512" transform="rotate(90 -3 501.5)" fill="#C1E8FF"/>
    </g>
    <g filter="url(#filter2_f_120_2)">
        <ellipse cx="-42.6765" cy="484.323" rx="55.5571" ry="512" transform="rotate(45 -42.6765 484.323)"
                 fill="#C1E8FF"/>
    </g>
    <g filter="url(#filter3_f_120_2)">
        <ellipse cx="11.7722" cy="511.772" rx="27.9072" ry="512" fill="#C1E8FF"/>
    </g>
    <g filter="url(#filter4_f_120_2)">
        <ellipse cx="-43.1688" cy="501.831" rx="76.0741" ry="512" transform="rotate(135 -43.1688 501.831)"
                 fill="#C1E8FF"/>
    </g>
    <defs>
        <filter id="filter0_di_120_2" x="-544.2" y="-78" width="975.5" height="1249.3" filterUnits="userSpaceOnUse"
                color-interpolation-filters="sRGB">
            <feFlood flood-opacity="0" result="BackgroundImageFix"/>
            <feColorMatrix in="SourceAlpha" type="matrix" values="0 0 0 0 0 0 0 0 0 0 0 0 0 0 0 0 0 0 127 0"
                           result="hardAlpha"/>
            <feOffset dx="8" dy="22"/>
            <feGaussianBlur stdDeviation="6.15"/>
            <feComposite in2="hardAlpha" operator="out"/>
            <feColorMatrix type="matrix" values="0 0 0 0 0.0196078 0 0 0 0 0.137255 0 0 0 0 0.333333 0 0 0 0.25 0"/>
            <feBlend mode="normal" in2="BackgroundImageFix" result="effect1_dropShadow_120_2"/>
            <feBlend mode="normal" in="SourceGraphic" in2="effect1_dropShadow_120_2" result="shape"/>
            <feColorMatrix in="SourceAlpha" type="matrix" values="0 0 0 0 0 0 0 0 0 0 0 0 0 0 0 0 0 0 127 0"
                           result="hardAlpha"/>
            <feOffset dx="-53" dy="1"/>
            <feGaussianBlur stdDeviation="10.1"/>
            <feComposite in2="hardAlpha" operator="arithmetic" k2="-1" k3="1"/>
            <feColorMatrix type="matrix" values="0 0 0 0 0.0196078 0 0 0 0 0.137255 0 0 0 0 0.333333 0 0 0 0.25 0"/>
            <feBlend mode="normal" in2="shape" result="effect2_innerShadow_120_2"/>
        </filter>
        <filter id="filter1_f_120_2" x="-635" y="320" width="1264" height="363" filterUnits="userSpaceOnUse"
                color-interpolation-filters="sRGB">
            <feFlood flood-opacity="0" result="BackgroundImageFix"/>
            <feBlend mode="normal" in="SourceGraphic" in2="BackgroundImageFix" result="shape"/>
            <feGaussianBlur stdDeviation="60" result="effect1_foregroundBlur_120_2"/>
        </filter>
        <filter id="filter2_f_120_2" x="-526.871" y="0.128662" width="968.39" height="968.39"
                filterUnits="userSpaceOnUse" color-interpolation-filters="sRGB">
            <feFlood flood-opacity="0" result="BackgroundImageFix"/>
            <feBlend mode="normal" in="SourceGraphic" in2="BackgroundImageFix" result="shape"/>
            <feGaussianBlur stdDeviation="60" result="effect1_foregroundBlur_120_2"/>
        </filter>
        <filter id="filter3_f_120_2" x="-136.135" y="-120.228" width="295.814" height="1264"
                filterUnits="userSpaceOnUse" color-interpolation-filters="sRGB">
            <feFlood flood-opacity="0" result="BackgroundImageFix"/>
            <feBlend mode="normal" in="SourceGraphic" in2="BackgroundImageFix" result="shape"/>
            <feGaussianBlur stdDeviation="60" result="effect1_foregroundBlur_120_2"/>
        </filter>
        <filter id="filter4_f_120_2" x="-529.231" y="15.7689" width="972.125" height="972.125"
                filterUnits="userSpaceOnUse" color-interpolation-filters="sRGB">
            <feFlood flood-opacity="0" result="BackgroundImageFix"/>
            <feBlend mode="normal" in="SourceGraphic" in2="BackgroundImageFix" result="shape"/>
            <feGaussianBlur stdDeviation="60" result="effect1_foregroundBlur_120_2"/>
        </filter>
    </defs>
</svg>
